<svg width="84" height="17" viewBox="0 0 84 36" fill="none" xmlns="http://www.w3.org/2000/svg">
<path d="M28.3398 13.082V15.3672H26.2695V20.6406C26.2695 21.3503 26.6146 21.7051 27.3047 21.7051C27.4219 21.7051 27.5488 21.6953 27.6855 21.6758C27.8288 21.6562 27.9525 21.6335 28.0566 21.6074L28.5352 23.873C27.8906 24.0618 27.2656 24.1562 26.6602 24.1562C25.5794 24.1562 24.7396 23.8828 24.1406 23.3359C23.5482 22.7891 23.252 22.0241 23.252 21.041V15.3672H21.7676V13.082H23.252V10.4844H26.2695V13.082H28.3398ZM30.3125 24V13.082H33.2422V14.9961H33.3594C33.5547 14.319 33.8867 13.8079 34.3555 13.4629C34.8242 13.1113 35.3646 12.9355 35.9766 12.9355C36.1263 12.9355 36.2891 12.9453 36.4648 12.9648C36.6406 12.9844 36.7936 13.0104 36.9238 13.043V15.7188C36.7806 15.6732 36.582 15.6374 36.3281 15.6113C36.0807 15.5788 35.8529 15.5625 35.6445 15.5625C34.9805 15.5625 34.4303 15.7741 33.9941 16.1973C33.5579 16.6139 33.3398 17.1576 33.3398 17.8281V24H30.3125ZM38.4961 24V13.082H41.5234V24H38.4961ZM40.0098 11.6855C39.5605 11.6855 39.1732 11.5358 38.8477 11.2363C38.5286 10.9368 38.3691 10.5755 38.3691 10.1523C38.3691 9.72917 38.5286 9.37109 38.8477 9.07812C39.1732 8.77865 39.5605 8.62891 40.0098 8.62891C40.459 8.62891 40.8431 8.77865 41.1621 9.07812C41.4876 9.37109 41.6504 9.72917 41.6504 10.1523C41.6504 10.5755 41.4876 10.9368 41.1621 11.2363C40.8431 11.5358 40.459 11.6855 40.0098 11.6855ZM43.9453 24V13.082H46.9727V24H43.9453ZM45.459 11.6855C45.0098 11.6855 44.6224 11.5358 44.2969 11.2363C43.9779 10.9368 43.8184 10.5755 43.8184 10.1523C43.8184 9.72917 43.9779 9.37109 44.2969 9.07812C44.6224 8.77865 45.0098 8.62891 45.459 8.62891C45.9082 8.62891 46.2923 8.77865 46.6113 9.07812C46.9368 9.37109 47.0996 9.72917 47.0996 10.1523C47.0996 10.5755 46.9368 10.9368 46.6113 11.2363C46.2923 11.5358 45.9082 11.6855 45.459 11.6855ZM49.3945 24V13.082H52.4219V24H49.3945ZM50.9082 11.6855C50.459 11.6855 50.0716 11.5358 49.7461 11.2363C49.4271 10.9368 49.2676 10.5755 49.2676 10.1523C49.2676 9.72917 49.4271 9.37109 49.7461 9.07812C50.0716 8.77865 50.459 8.62891 50.9082 8.62891C51.3574 8.62891 51.7415 8.77865 52.0605 9.07812C52.3861 9.37109 52.5488 9.72917 52.5488 10.1523C52.5488 10.5755 52.3861 10.9368 52.0605 11.2363C51.7415 11.5358 51.3574 11.6855 50.9082 11.6855ZM54.8438 28.082V13.082H57.8223V14.9277H57.959C58.0957 14.6283 58.2878 14.3255 58.5352 14.0195C58.7891 13.7135 59.1211 13.4596 59.5312 13.2578C59.9479 13.0495 60.459 12.9453 61.0645 12.9453C61.8652 12.9453 62.5977 13.1536 63.2617 13.5703C63.9323 13.9805 64.4694 14.6022 64.873 15.4355C65.2767 16.2689 65.4785 17.3105 65.4785 18.5605C65.4785 19.7715 65.2832 20.7969 64.8926 21.6367C64.502 22.4701 63.9714 23.1016 63.3008 23.5312C62.6302 23.9609 61.8783 24.1758 61.0449 24.1758C60.459 24.1758 59.9609 24.0781 59.5508 23.8828C59.1471 23.6875 58.8151 23.4434 58.5547 23.1504C58.3008 22.8509 58.1022 22.5514 57.959 22.252H57.8711V28.082H54.8438ZM57.8027 18.5508C57.8027 19.5143 58.0013 20.2923 58.3984 20.8848C58.8021 21.4772 59.3685 21.7734 60.0977 21.7734C60.8398 21.7734 61.4062 21.474 61.7969 20.875C62.1875 20.2695 62.3828 19.4948 62.3828 18.5508C62.3828 17.6003 62.1875 16.8288 61.7969 16.2363C61.4128 15.6439 60.8464 15.3477 60.0977 15.3477C59.3685 15.3477 58.8021 15.6374 58.3984 16.2168C58.0013 16.7962 57.8027 17.5742 57.8027 18.5508ZM70.4883 9.44922V24H67.4609V9.44922H70.4883ZM77.8809 24.2148C76.7611 24.2148 75.7975 23.987 74.9902 23.5312C74.1829 23.0755 73.5612 22.4277 73.125 21.5879C72.6888 20.7415 72.4707 19.7422 72.4707 18.5898C72.4707 17.4701 72.6855 16.487 73.1152 15.6406C73.5514 14.7943 74.1634 14.1335 74.9512 13.6582C75.7389 13.1829 76.6667 12.9453 77.7344 12.9453C78.6979 12.9453 79.5671 13.1504 80.3418 13.5605C81.123 13.9707 81.7415 14.5859 82.1973 15.4062C82.6595 16.2266 82.8906 17.2552 82.8906 18.4922V19.3125H75.4492C75.4818 20.1393 75.7227 20.7871 76.1719 21.2559C76.6211 21.7246 77.207 21.959 77.9297 21.959C78.431 21.959 78.8607 21.8516 79.2188 21.6367C79.5833 21.4219 79.8438 21.1094 80 20.6992L82.793 20.8848C82.5781 21.8874 82.041 22.6947 81.1816 23.3066C80.3288 23.9121 79.2285 24.2148 77.8809 24.2148ZM75.4688 17.4473H79.9902C79.9186 16.7572 79.6973 16.2103 79.3262 15.8066C78.9551 15.403 78.4342 15.2012 77.7637 15.2012C77.0866 15.2012 76.5495 15.4128 76.1523 15.8359C75.7617 16.2526 75.5339 16.7897 75.4688 17.4473Z" fill="black"/>
<path d="M4.85688 23.88C4.85688 23.9867 4.24354 24.04 3.01688 24.04C1.80354 24.04 1.19688 23.9933 1.19688 23.9V14.08C1.19688 13.9867 1.80354 13.94 3.01688 13.94C4.24354 13.94 4.85688 13.98 4.85688 14.06V23.88ZM4.85688 12.88C4.85688 12.9733 4.24354 13.02 3.01688 13.02C1.80354 13.02 1.19688 12.98 1.19688 12.9V10.02C1.19688 9.88667 1.80354 9.82 3.01688 9.82C4.24354 9.82 4.85688 9.86 4.85688 9.94V12.88ZM10.3256 23.88C10.3256 23.9867 9.71229 24.04 8.48563 24.04C7.27229 24.04 6.66563 23.9933 6.66563 23.9V14.08C6.66563 13.9867 7.27229 13.94 8.48563 13.94C9.71229 13.94 10.3256 13.98 10.3256 14.06V23.88ZM10.3256 12.88C10.3256 12.9733 9.71229 13.02 8.48563 13.02C7.27229 13.02 6.66563 12.98 6.66563 12.9V10.02C6.66563 9.88667 7.27229 9.82 8.48563 9.82C9.71229 9.82 10.3256 9.86 10.3256 9.94V12.88ZM15.7944 23.88C15.7944 23.9867 15.181 24.04 13.9544 24.04C12.741 24.04 12.1344 23.9933 12.1344 23.9V14.08C12.1344 13.9867 12.741 13.94 13.9544 13.94C15.181 13.94 15.7944 13.98 15.7944 14.06V23.88ZM15.7944 12.88C15.7944 12.9733 15.181 13.02 13.9544 13.02C12.741 13.02 12.1344 12.98 12.1344 12.9V10.02C12.1344 9.88667 12.741 9.82 13.9544 9.82C15.181 9.82 15.7944 9.86 15.7944 9.94V12.88Z" fill="black"/>
</svg>
